<?xml version="1.0" encoding="UTF-8"?>
<svg version="1.1" xmlns="http://www.w3.org/2000/svg" width="25" height="32">
<path d="M0 0 C0.66 0 1.32 0 2 0 C2.5037829 4.03026321 2.82335309 6.63754667 0.6875 10.171875 C-3.88298032 15.59932038 -8.73928464 19.6637502 -15.9375 20.75 C-16.948125 20.8325 -17.95875 20.915 -19 21 C-19 19.35 -19 17.7 -19 16 C-18.14728516 15.77957031 -18.14728516 15.77957031 -17.27734375 15.5546875 C-10.84640464 13.68660168 -5.31209911 11.09759913 -1.90234375 5.0546875 C-1.18391786 3.40397871 -0.57951212 1.70444741 0 0 Z " fill="#38885C" transform="translate(19,4)"/>
<path d="M0 0 C1.32 0.66 2.64 1.32 4 2 C0.93604898 8.86798682 -5.07768783 12.51656756 -11.84375 15.3203125 C-14.63162941 16.19910058 -17.10262539 16.29716663 -20 16 C-20 14.68 -20 13.36 -20 12 C-18.91332031 11.63648438 -18.91332031 11.63648438 -17.8046875 11.265625 C-7.45078969 7.724612 -7.45078969 7.724612 0 0 Z " fill="#499F78" transform="translate(20,14)"/>
<path d="M0 0 C2.475 0.99 2.475 0.99 5 2 C3.45089037 7.77395408 1.08691013 12.90728359 -3.96484375 16.33203125 C-7.67184429 18.28562744 -9.6941159 19 -14 19 C-14 17.68 -14 16.36 -14 15 C-13.20335937 14.63648438 -13.20335937 14.63648438 -12.390625 14.265625 C-6.53224942 11.51338008 -6.53224942 11.51338008 -2 7 C-0.72234735 3.36456099 -0.72234735 3.36456099 0 0 Z " fill="#297444" transform="translate(14,0)"/>
<path d="M0 0 C0.66 0 1.32 0 2 0 C2.32521241 4.6613779 1.81951666 7.24064446 -1 11 C-4.15314785 13.10209857 -4.86103081 13.2434761 -8.44921875 13.1953125 C-9.72055664 13.18564453 -9.72055664 13.18564453 -11.01757812 13.17578125 C-11.89865234 13.15902344 -12.77972656 13.14226563 -13.6875 13.125 C-14.58017578 13.11597656 -15.47285156 13.10695313 -16.39257812 13.09765625 C-18.59532314 13.07409748 -20.79752588 13.04120329 -23 13 C-23 12.67 -23 12.34 -23 12 C-22.23816406 11.85304688 -21.47632812 11.70609375 -20.69140625 11.5546875 C-12.43215278 9.76054255 -4.86609387 7.2991408 0 0 Z " fill="#55AD89" transform="translate(23,19)"/>
<path d="M0 0 C1.32 0 2.64 0 4 0 C3.54625711 4.87773605 2.47822112 7.52177888 -1 11 C-6.17241379 14 -6.17241379 14 -9 14 C-9 12.35 -9 10.7 -9 9 C-8.071875 8.62875 -7.14375 8.2575 -6.1875 7.875 C-2.4739697 5.69057041 -1.57312496 3.93281241 0 0 Z " fill="#226837" transform="translate(9,0)"/>
<path d="M0 0 C2.625 -0.1875 2.625 -0.1875 5 0 C3.73882275 3.88862987 2.54735833 5.89375599 -1 8 C-1.66 8 -2.32 8 -3 8 C-2.45276317 4.62537285 -1.9451 2.91765 0 0 Z " fill="#1C5E2D" transform="translate(3,0)"/>
<path d="M0 0 C0.66 0 1.32 0 2 0 C2 0.66 2 1.32 2 2 C1.34 2 0.68 2 0 2 C0 1.34 0 0.68 0 0 Z " fill="#1A5928" transform="translate(0,0)"/>
</svg>
